<svg id="visual" viewBox="0 0 540 960" width="540" height="960" xmlns="http://www.w3.org/2000/svg" xmlns:xlink="http://www.w3.org/1999/xlink" version="1.1"><path d="M0 116L12.8 116C25.7 116 51.3 116 77 116C102.7 116 128.3 116 154 116C179.7 116 205.3 116 231.2 116C257 116 283 116 308.8 116C334.7 116 360.3 116 386 116C411.7 116 437.3 116 463 114.5C488.7 113 514.3 110 527.2 108.5L540 107L540 0L527.2 0C514.3 0 488.7 0 463 0C437.3 0 411.7 0 386 0C360.3 0 334.7 0 308.8 0C283 0 257 0 231.2 0C205.3 0 179.7 0 154 0C128.3 0 102.7 0 77 0C51.3 0 25.7 0 12.8 0L0 0Z" fill="#1d2d44"></path><path d="M0 404L12.8 404C25.7 404 51.3 404 77 397.7C102.7 391.3 128.3 378.7 154 372.3C179.7 366 205.3 366 231.2 372.3C257 378.7 283 391.3 308.8 391.3C334.7 391.3 360.3 378.7 386 372.3C411.7 366 437.3 366 463 362.8C488.7 359.7 514.3 353.3 527.2 350.2L540 347L540 105L527.2 106.5C514.3 108 488.7 111 463 112.5C437.3 114 411.7 114 386 114C360.3 114 334.7 114 308.8 114C283 114 257 114 231.2 114C205.3 114 179.7 114 154 114C128.3 114 102.7 114 77 114C51.3 114 25.7 114 12.8 114L0 114Z" fill="#32435c"></path><path d="M0 683L12.8 681.3C25.7 679.7 51.3 676.3 77 674.7C102.7 673 128.3 673 154 668.2C179.7 663.3 205.3 653.7 231.2 653.7C257 653.7 283 663.3 308.8 663.3C334.7 663.3 360.3 653.7 386 650.5C411.7 647.3 437.3 650.7 463 652.3C488.7 654 514.3 654 527.2 654L540 654L540 345L527.2 348.2C514.3 351.3 488.7 357.7 463 360.8C437.3 364 411.7 364 386 370.3C360.3 376.7 334.7 389.3 308.8 389.3C283 389.3 257 376.7 231.2 370.3C205.3 364 179.7 364 154 370.3C128.3 376.7 102.7 389.3 77 395.7C51.3 402 25.7 402 12.8 402L0 402Z" fill="#475a76"></path><path d="M0 807L12.8 805.5C25.7 804 51.3 801 77 801C102.7 801 128.3 804 154 800.8C179.7 797.7 205.3 788.3 231.2 788.3C257 788.3 283 797.7 308.8 799.2C334.7 800.7 360.3 794.3 386 792.8C411.7 791.3 437.3 794.7 463 793.2C488.7 791.7 514.3 785.3 527.2 782.2L540 779L540 652L527.2 652C514.3 652 488.7 652 463 650.3C437.3 648.7 411.7 645.3 386 648.5C360.3 651.7 334.7 661.3 308.8 661.3C283 661.3 257 651.7 231.2 651.7C205.3 651.7 179.7 661.3 154 666.2C128.3 671 102.7 671 77 672.7C51.3 674.3 25.7 677.7 12.8 679.3L0 681Z" fill="#5d7390"></path><path d="M0 961L12.8 961C25.7 961 51.3 961 77 961C102.7 961 128.3 961 154 961C179.7 961 205.3 961 231.2 961C257 961 283 961 308.8 961C334.7 961 360.3 961 386 961C411.7 961 437.3 961 463 961C488.7 961 514.3 961 527.2 961L540 961L540 777L527.2 780.2C514.3 783.3 488.7 789.7 463 791.2C437.3 792.7 411.7 789.3 386 790.8C360.3 792.3 334.7 798.7 308.8 797.2C283 795.7 257 786.3 231.2 786.3C205.3 786.3 179.7 795.7 154 798.8C128.3 802 102.7 799 77 799C51.3 799 25.7 802 12.8 803.5L0 805Z" fill="#748cab"></path></svg>